<?xml version="1.0" encoding="UTF-8" standalone="no"?>
<!-- Created with Inkscape (http://www.inkscape.org/) -->

<svg
   width="50.830276mm"
   height="40.49572mm"
   viewBox="0 0 50.830276 40.49572"
   version="1.1"
   id="svg1"
   xml:space="preserve"
   inkscape:version="1.4.2 (ebf0e94, 2025-05-08)"
   sodipodi:docname="drawing.svg"
   inkscape:export-batch-path="/home/btadele020"
   inkscape:export-batch-name="batch"
   xmlns:inkscape="http://www.inkscape.org/namespaces/inkscape"
   xmlns:sodipodi="http://sodipodi.sourceforge.net/DTD/sodipodi-0.dtd"
   xmlns="http://www.w3.org/2000/svg"
   xmlns:svg="http://www.w3.org/2000/svg"><sodipodi:namedview
     id="namedview1"
     pagecolor="#ffffff"
     bordercolor="#000000"
     borderopacity="0.25"
     inkscape:showpageshadow="2"
     inkscape:pageopacity="0.0"
     inkscape:pagecheckerboard="0"
     inkscape:deskcolor="#d1d1d1"
     inkscape:document-units="mm"
     inkscape:zoom="0.47139468"
     inkscape:cx="351.08585"
     inkscape:cy="396.69519"
     inkscape:window-width="1138"
     inkscape:window-height="602"
     inkscape:window-x="0"
     inkscape:window-y="0"
     inkscape:window-maximized="1"
     inkscape:current-layer="layer1"
     showguides="true"
     showgrid="false"><inkscape:page
       x="0"
       y="0"
       width="50.830276"
       height="40.49572"
       id="page2"
       margin="0"
       bleed="0" /></sodipodi:namedview><defs
     id="defs1" /><g
     inkscape:label="Layer 1"
     inkscape:groupmode="layer"
     id="layer1"
     transform="translate(-5.6317987,-142.90698)"><g
       id="g140"
       transform="matrix(0.63355262,0,0,0.63355262,-40.968639,108.2081)"
       style="fill:#f9f9f9"><text
         xml:space="preserve"
         style="font-style:normal;font-variant:normal;font-weight:normal;font-stretch:normal;font-size:22.9175px;line-height:1.3;font-family:'Google Sans';-inkscape-font-specification:'Google Sans, Normal';font-variant-ligatures:normal;font-variant-caps:normal;font-variant-numeric:normal;font-variant-east-asian:normal;text-align:center;letter-spacing:0.944473px;writing-mode:lr-tb;direction:ltr;text-anchor:middle;fill:#f9f9f9;fill-opacity:1;stroke:none;stroke-width:9.97366;stroke-dasharray:none"
         x="112.92462"
         y="118.32055"
         id="text138"><tspan
           sodipodi:role="line"
           id="tspan138"
           style="font-style:normal;font-variant:normal;font-weight:normal;font-stretch:normal;font-size:22.9175px;font-family:'Google Sans';-inkscape-font-specification:'Google Sans, Normal';font-variant-ligatures:normal;font-variant-caps:normal;font-variant-numeric:normal;font-variant-east-asian:normal;fill:#f9f9f9;fill-opacity:1;stroke-width:9.97366"
           x="113.39686"
           y="118.32055">NOURA</tspan></text><g
         id="g139"
         transform="matrix(0.8541729,0,0,0.8541729,32.127207,13.912338)"
         style="fill:#f9f9f9"><path
           style="baseline-shift:baseline;display:inline;overflow:visible;opacity:1;vector-effect:none;fill:#f9f9f9;fill-opacity:1;stroke-width:0.726842;enable-background:accumulate;stop-color:#000000;stop-opacity:1"
           d="m 95.462675,47.831548 c -8.7787,0 -15.86134,7.082644 -15.86134,15.861346 v 15.353123 c 0,8.778702 7.08264,15.862768 15.86134,15.862768 8.778705,0 15.862765,-7.084066 15.862765,-15.862768 V 63.692894 c 0,-8.778702 -7.08406,-15.861346 -15.862765,-15.861346 z m 0,1.017863 c 8.232555,0 14.844895,6.610919 14.844895,14.843483 v 15.353123 c 0,8.232564 -6.61234,14.844899 -14.844895,14.844906 -8.23257,0 -14.84348,-6.612342 -14.84348,-14.844906 V 63.692894 c 0,-8.232564 6.61091,-14.843483 14.84348,-14.843483 z"
           id="path138" /><path
           d="m 96.858055,94.850275 c 0,0 -3.32477,-7.485498 -4.37327,-11.31854 -1.0485,-3.833041 -1.53997,-7.656819 -1.01615,-11.258125 0.087,-0.598394 0.34461,-1.398545 0.70495,-2.197747 0.27027,-0.599397 0.59834,-1.198247 0.95565,-1.711026 0.1191,-0.17092 0.24145,-0.332267 0.36599,-0.480904 0.82885,-0.98916 2.27665,-0.78248 2.4618,0.220849 0.4425,2.397917 2.00192,3.570671 3.05896,4.658922 0.76081,0.783283 1.553965,1.579932 2.058345,2.548432 0.81673,1.568316 0.88284,3.429091 1.47028,5.0969 0.50595,1.436547 0.48037,3.395502 1.76428,4.214763 0.71665,0.457288 2.01307,0.562306 2.54846,-0.09802 0.22834,-0.281627 0.28947,-0.613857 0.2553,-0.971417 -0.0205,-0.214539 -0.0753,-0.438215 -0.1489,-0.665537 -0.19622,-0.606235 -0.52591,-1.238584 -0.69451,-1.793651 -0.0623,-0.205184 -0.23414,-1.469917 -0.28562,-2.914962 -0.0257,-0.722523 -0.0214,-1.490142 0.0418,-2.192933 0.0474,-0.527094 0.12785,-1.017717 0.25353,-1.425515 0.0419,-0.135945 0.0888,-0.262681 0.1412,-0.378493 0.67982,-1.502815 1.01861,-3.170077 1.01898,-4.834147 v -0.0055 c -1.9e-4,-0.825732 -0.0837,-1.650664 -0.25024,-2.454243 -1.16573,-5.625106 -6.39926,-10.205197 -15.591605,-6.712409 -5.11789,1.94464 -8.10876,9.852105 -8.10982,17.707507 v 0.0084 c 3.7e-4,2.054489 0.20509,4.105278 0.62987,6.044757 0.60031,2.740869 2.36401,8.197289 2.36401,8.197289 4.1049,3.35274 10.44764,2.839432 10.37671,2.715309 z"
           style="fill:#f9f9f9;fill-opacity:1;stroke:none;stroke-width:0.369777"
           id="path139"
           sodipodi:nodetypes="cssssscsccsssssssssssssssscc" /><ellipse
           style="opacity:1;fill:#1a1a1a;fill-opacity:1;stroke:none;stroke-width:0.636623;stroke-dasharray:none"
           id="ellipse139"
           cx="55.5592"
           cy="108.72569"
           rx="0.54388678"
           ry="0.75108171"
           transform="rotate(-28.956768)" /></g></g></g></svg>
